<?xml version="1.0" encoding="utf-8"?>
<!DOCTYPE svg PUBLIC "-//W3C//DTD SVG 1.1//EN" "http://www.w3.org/Graphics/SVG/1.1/DTD/svg11.dtd">
<svg xmlns="http://www.w3.org/2000/svg" xmlns:xlink="http://www.w3.org/1999/xlink" version="1.1" baseProfile="full" width="257.349" height="258" viewBox="0 0 257.35 258.00" enable-background="new 0 0 257.35 258.00" xml:space="preserve">
	<linearGradient id="SVGID_Fill1_" gradientUnits="objectBoundingBox" x1="0.5" y1="-0.0175438" x2="1.53509" y2="-0.0175438" gradientTransform="rotate(90.000000 0.500000 -0.017544)">
		<stop offset="0" stop-color="#08255D" stop-opacity="1"/>
		<stop offset="0.186047" stop-color="#2E5892" stop-opacity="1"/>
		<stop offset="0.418605" stop-color="#548BC7" stop-opacity="1"/>
		<stop offset="0.995763" stop-color="#D0EFFC" stop-opacity="1"/>
	</linearGradient>
	<path fill="url(#SVGID_Fill1_)" stroke-width="2" stroke-linejoin="round" stroke="#476E93" stroke-opacity="1" d="M 256.349,16.3601L 256.349,241.64C 256.349,250.123 249.872,257 241.883,257L 15.4664,257C 7.47678,257 1,250.123 1,241.64L 1,16.3601C 1,7.87689 7.47678,1.00006 15.4664,1.00006L 241.883,1.00006C 249.872,1.00006 256.349,7.87689 256.349,16.3601 Z "/>
	<path fill="#F3F9FF" fill-opacity="1" stroke-linejoin="round" stroke="#476E93" stroke-opacity="1" d="M 232.474,241.201L 182.364,241.201L 182.364,121.139C 182.364,102.088 181.674,89.7491 180.295,84.1232C 177.946,75.045 172.334,67.7568 163.461,62.2588C 154.587,56.7607 142.47,54.0116 127.109,54.0116C 111.449,54.0116 99.6579,56.6088 91.735,61.8033C 83.812,66.9977 79.0397,73.3747 77.4178,80.9346C 75.7959,88.4944 74.985,101.049 74.985,118.598L 74.985,241.201L 24.8748,241.201L 24.8748,125.502C 24.8748,99.0669 26.2916,80.3912 29.1251,69.4749C 31.9588,58.5587 37.1973,49.3447 44.8405,41.8328C 52.4838,34.3209 62.6997,28.3354 75.4883,23.8763C 88.2768,19.4171 104.962,17.1875 125.543,17.1875C 150.411,17.1875 169.268,19.6168 182.112,24.4756C 194.957,29.3344 205.108,35.6475 212.564,43.4151C 220.021,51.1827 224.943,59.3179 227.329,67.8207C 230.759,80.4471 232.474,99.083 232.474,123.728L 232.474,241.201 Z "/>
	<path fill="#E9F1FC" fill-opacity="0.603922" stroke-linejoin="round" stroke="#476E93" stroke-opacity="0.603922" d="M 94.618,131.846L 94.618,86.8208C 94.618,79.4529 101.271,73.4799 109.479,73.4799L 147.87,73.4799C 156.077,73.4799 162.73,79.4529 162.73,86.8208L 162.73,131.846"/>
	<path fill="#F1F7FF" fill-opacity="0.603922" stroke-linejoin="round" d="M 116.017,151.825L 118.275,139.273L 139.051,139.273L 141.332,151.825L 116.017,151.825 Z "/>
	<path fill="#F1F7FF" fill-opacity="0.603922" stroke-linejoin="round" d="M 112.853,182.943L 115.676,163.801L 141.646,163.801L 144.497,182.943L 112.853,182.943 Z "/>
	<path fill="#F1F7FF" fill-opacity="0.603922" stroke-linejoin="round" d="M 106.522,225.306L 112.023,192.88L 145.291,192.88L 149.921,225.306L 106.522,225.306 Z "/>
	<g>
		<path fill="#000000" fill-opacity="1" stroke-linejoin="round" d="M 132.918,207.565C 132.918,217.029 130.354,224.546 125.227,230.115C 120.099,235.684 113.011,238.468 103.961,238.468C 94.9441,238.468 87.8716,235.684 82.7442,230.115C 77.6166,224.546 75.0529,217.029 75.0529,207.565C 75.0529,198.017 77.6166,190.471 82.7442,184.928C 87.8716,179.384 94.9441,176.612 103.961,176.612C 112.963,176.612 120.039,179.384 125.191,184.928C 130.342,190.471 132.918,198.017 132.918,207.565 Z M 114.004,222.565C 115.442,220.757 116.511,218.628 117.21,216.176C 117.909,213.724 118.259,210.837 118.259,207.515C 118.259,203.967 117.859,200.944 117.06,198.446C 116.26,195.948 115.213,193.929 113.919,192.39C 112.601,190.8 111.084,189.647 109.368,188.932C 107.652,188.216 105.866,187.859 104.01,187.859C 102.121,187.859 100.345,188.204 98.6812,188.894C 97.0176,189.584 95.4866,190.725 94.0882,192.314C 92.7942,193.804 91.7413,195.854 90.9296,198.465C 90.118,201.076 89.7121,204.109 89.7121,207.565C 89.7121,211.088 90.1059,214.09 90.8935,216.571C 91.6811,219.052 92.722,221.075 94.0158,222.64C 95.3018,224.205 96.8106,225.36 98.5426,226.104C 100.275,226.849 102.097,227.221 104.01,227.221C 105.914,227.221 107.733,226.843 109.465,226.086C 111.197,225.328 112.71,224.155 114.004,222.565 Z "/>
		<path fill="#000000" fill-opacity="1" stroke-linejoin="round" d="M 190.012,196.645C 190.012,199.256 189.576,201.81 188.704,204.308C 187.832,206.806 186.584,208.904 184.961,210.603C 182.735,212.904 180.255,214.642 177.523,215.818C 174.79,216.994 171.39,217.582 167.324,217.582L 158.379,217.582L 158.379,236.861L 143.72,236.861L 143.72,178.219L 167.529,178.219C 171.089,178.219 174.095,178.539 176.546,179.179C 178.997,179.819 181.163,180.779 183.044,182.059C 185.302,183.599 187.028,185.572 188.222,187.978C 189.415,190.384 190.012,193.273 190.012,196.645 Z M 175.353,197.072C 175.353,195.482 174.923,194.114 174.063,192.967C 173.203,191.821 172.206,191.017 171.073,190.557C 169.554,189.955 168.075,189.622 166.637,189.559C 165.198,189.496 163.277,189.465 160.874,189.465L 158.379,189.465L 158.379,206.335L 162.55,206.335C 165.025,206.335 167.065,206.184 168.668,205.883C 170.271,205.582 171.616,204.975 172.701,204.063C 173.633,203.26 174.308,202.297 174.726,201.176C 175.144,200.055 175.353,198.687 175.353,197.072 Z "/>
		<path fill="#000000" fill-opacity="1" stroke-linejoin="round" d="M 225.201,238.468C 221.086,238.468 217.289,237.815 213.809,236.51C 210.329,235.205 207.339,233.259 204.84,230.673C 202.332,228.088 200.391,224.862 199.017,220.996C 197.643,217.13 196.956,212.665 196.956,207.603C 196.956,202.883 197.613,198.605 198.927,194.768C 200.241,190.932 202.147,187.637 204.647,184.884C 207.05,182.248 210.03,180.21 213.586,178.771C 217.142,177.332 221.026,176.612 225.237,176.612C 227.568,176.612 229.67,176.752 231.542,177.033C 233.415,177.313 235.143,177.675 236.726,178.118C 238.39,178.629 239.897,179.193 241.247,179.813C 242.597,180.432 243.778,181.009 244.791,181.545L 244.791,195.892L 243.152,195.892C 242.452,195.239 241.572,194.467 240.511,193.576C 239.451,192.685 238.249,191.808 236.907,190.946C 235.541,190.076 234.06,189.344 232.465,188.75C 230.869,188.156 229.163,187.859 227.347,187.859C 225.33,187.859 223.411,188.202 221.591,188.888C 219.77,189.574 218.089,190.716 216.546,192.314C 215.075,193.846 213.885,195.879 212.977,198.415C 212.069,200.95 211.615,204.025 211.615,207.64C 211.615,211.414 212.107,214.569 213.092,217.105C 214.076,219.64 215.316,221.636 216.811,223.092C 218.33,224.581 220.023,225.642 221.892,226.274C 223.761,226.906 225.603,227.221 227.419,227.221C 229.163,227.221 230.887,226.937 232.591,226.368C 234.295,225.799 235.87,225.025 237.317,224.046C 238.538,223.251 239.671,222.406 240.716,221.51C 241.761,220.615 242.621,219.841 243.296,219.188L 244.791,219.188L 244.791,233.372C 243.401,234.033 242.074,234.656 240.813,235.242C 239.551,235.828 238.225,236.334 236.835,236.761C 235.026,237.313 233.329,237.736 231.741,238.029C 230.154,238.322 227.974,238.468 225.201,238.468 Z "/>
	</g>
	<ellipse fill="#7F92A4" fill-opacity="0.203922" stroke-linejoin="round" cx="128.882" cy="126.156" rx="128" ry="122.058"/>
</svg>
